<?xml version="1.0" encoding="UTF-8"?>
<svg id="icon" width="24" height="24" viewBox="0 0 24 24" fill="none" xmlns="http://www.w3.org/2000/svg">
  <path d="M12 3.5C13.5913 3.5 15.1174 4.17428 16.2426 5.37452C17.3679 6.57475 18 8.20261 18 9.9V17.3L18.6 17.9C18.7889 18.0925 18.9123 18.3399 18.9535 18.6067C18.9947 18.8734 18.9519 19.1454 18.8308 19.3853C18.7097 19.6252 18.5161 19.8217 18.2777 19.9463C18.0394 20.0709 17.7674 20.1176 17.5 20.08H6.5C6.23265 20.1176 5.96066 20.0709 5.72228 19.9463C5.48389 19.8217 5.2903 19.6252 5.16921 19.3853C5.04812 19.1454 5.00534 18.8734 5.04656 18.6067C5.08778 18.3399 5.21114 18.0925 5.4 17.9L6 17.3V9.9C6 8.20261 6.63214 6.57475 7.75736 5.37452C8.88258 4.17428 10.4087 3.5 12 3.5ZM12 2C10.0222 2 8.08879 2.84285 6.6967 4.34315C5.30462 5.84344 4.5 7.82609 4.5 9.9V16.8L3.35 18C2.98353 18.3814 2.7276 18.8563 2.60735 19.3775C2.48711 19.8987 2.50756 20.4442 2.66575 20.9535C2.82394 21.4629 3.11393 21.9178 3.50298 22.2705C3.89203 22.6231 4.36475 22.8611 4.875 22.96C5.08 22.9867 5.29 23 5.5 23H18.5C19.0247 23.0015 19.5398 22.8612 19.9819 22.5951C20.424 22.329 20.7744 21.9472 20.9929 21.4919C21.2114 21.0366 21.2891 20.5265 21.2169 20.0262C21.1446 19.5258 20.9253 19.0551 20.585 18.675L19.5 17.675V9.9C19.5 7.82609 18.6954 5.84344 17.3033 4.34315C15.9112 2.84285 13.9778 2 12 2Z" fill="currentColor"/>
  <path d="M14 20C13.9015 20.3031 13.6901 20.5547 13.4122 20.7295C13.1343 20.9044 12.8021 20.9965 12.4633 20.9965C12.1245 20.9965 11.7922 20.9044 11.5144 20.7295C11.2365 20.5547 11.0251 20.3031 10.9266 20" stroke="currentColor" strokeWidth="1.5" strokeLinecap="round" strokeLinejoin="round"/>
</svg>